<?xml version="1.0" encoding="UTF-8"?>
<!-- Generated by Pixelmator Pro 3.7.1 -->
<svg width="564" height="115" viewBox="0 0 564 115" xmlns="http://www.w3.org/2000/svg">
    <defs>
        <style>
            @import url('https://fonts.googleapis.com/css2?family=Nunito:wght@600&amp;display=swap');
        </style>
    </defs>
    <path id="Path" fill="#9d4edd" stroke="none" d="M 37.049999 102.379997 C 31.489998 106.053329 26.086666 109.773331 20.84 113.540001 C 18.913334 114.919998 17.146667 114.739998 15.540001 113 C 13.970001 111.300003 14.299999 109.220001 14.25 106.910004 C 14.196667 103.816666 14.186665 98.346664 14.220001 90.5 C 14.220001 90.078079 14.083153 89.667534 13.830002 89.330002 C 12.636667 87.756668 11.516666 86.240005 10.469999 84.779999 C 6.563334 79.333328 3.846666 72.979996 2.32 65.720001 C -1.57 47.209999 1.76 25.589996 16.259998 12.650002 C 22.313332 7.243332 30.023335 3.566666 39.389999 1.620003 C 55.050003 -1.639999 74.610001 0.339996 88.110001 9.379997 C 99.57 17.050003 105.769997 29.089996 107.010002 43.68 C 107.83667 53.406662 107.099998 62.023331 104.800003 69.529999 C 99.206673 87.789993 86.666672 98.756668 67.18 102.43 C 67.099998 102.443329 63.949997 102.736664 57.730003 103.309998 C 51.330002 103.900002 44.349998 102.919998 38.32 102.089996 C 37.874802 102.03196 37.424259 102.134842 37.049999 102.379997 Z M 90.459999 34.040001 C 90.454536 33.662834 90.147202 33.359955 89.769997 33.360001 L 83.150002 33.360001 C 82.777306 33.359962 82.41423 33.259689 82.099998 33.07 C 77.486664 30.363327 72.949997 27.75666 68.489998 25.25 C 62.07 21.629997 57.739998 23.709999 52.889999 29.169998 C 47.416664 35.356667 43.876667 39.546669 42.27 41.740005 C 40.876667 43.639999 41.066666 45.523331 42.84 47.389999 C 43.075497 47.638458 43.37347 47.815155 43.700001 47.900002 C 46.033333 48.533333 48.083328 48.013329 49.849998 46.339996 C 53.449997 42.933327 56.790001 39.676666 59.870003 36.57 C 60.498116 35.94445 61.511002 35.935562 62.150002 36.550003 C 69.716667 43.863335 76.893333 51.143333 83.68 58.389999 C 84.739998 59.529999 86.260002 60.699997 87.739998 60.510002 C 89.540001 60.27 90.450005 59.256668 90.470001 57.470001 C 90.57 47.670006 90.566666 39.860001 90.459999 34.040001 Z M 65.949997 56.110001 L 77.300003 67.169998 C 78.663544 68.499901 80.84288 68.486534 82.190002 67.139999 L 82.459999 66.870003 C 83.205925 66.122566 83.621521 65.107582 83.613998 64.051643 C 83.606483 62.995705 83.176483 61.98674 82.419998 61.25 L 60.940002 40.270004 C 60.775352 40.10965 60.551712 40.024857 60.32357 40.03627 C 60.095421 40.047668 59.883705 40.154236 59.739998 40.330002 C 57.606667 42.889999 54.976669 45.543335 51.849998 48.290001 C 46.84333 52.690002 42.586666 52.126663 39.080002 46.599998 C 38.927692 46.348434 38.819489 46.074547 38.759998 45.790001 C 38.32 43.623337 39.053333 41.263336 40.959999 38.709999 C 43.593334 35.183334 46.453331 31.756668 49.540001 28.43 C 50.100815 27.81752 50.105156 26.883636 49.550003 26.279999 C 48.909996 25.566666 48.059998 25.209999 47 25.209999 C 42.450001 25.18 39.299999 28.119995 35.369999 31.309998 C 34.696854 31.85379 33.856792 32.150284 32.990002 32.150002 L 20 32.150002 C 19.663105 32.150002 19.389999 32.427582 19.389999 32.770004 C 19.356667 42.129997 19.363335 50.313332 19.41 57.32 C 19.423332 59.16 20.323334 60.18 22.110001 60.379997 C 22.481853 60.418098 22.852062 60.27742 23.110001 60 C 25.189999 57.766666 27.739998 56.466667 30.759998 56.099998 C 31.102329 56.06044 31.450737 56.098015 31.779999 56.209999 C 33.493332 56.803333 34.883331 57.929996 35.950001 59.589996 C 36.080608 59.798744 36.149918 60.044792 36.150002 60.300003 L 36.150002 61.199997 C 36.148666 61.600204 36.414619 61.95208 36.799999 62.059998 C 40.18 62.989998 42.470001 63.550003 43.459999 67.440002 C 43.620785 68.080368 44.171886 68.546989 44.830002 68.599998 C 48.036667 68.860001 49.846664 70.323334 50.260002 72.989998 C 50.329559 73.461647 50.738335 73.810814 51.220001 73.809998 L 53 73.809998 C 53.3265 73.80986 53.63681 73.939758 53.860001 74.169998 L 61.099998 81.410004 C 61.745369 82.053818 62.632736 82.394951 63.543182 82.349243 C 64.453629 82.303528 65.302368 81.875229 65.879997 81.169998 L 66.080002 80.93 C 67.380859 79.373642 67.276764 77.079147 65.839996 75.639999 L 56.220001 66.019997 C 55.691101 65.489273 55.691101 64.63073 56.220001 64.099998 L 56.510002 63.809998 C 56.774666 63.543747 57.134583 63.394035 57.510002 63.394035 C 57.885414 63.394035 58.245338 63.543747 58.510002 63.809998 L 69.029999 74.32 C 70.515068 75.810478 72.923019 75.828316 74.43 74.360001 L 74.660004 74.129997 C 75.386658 73.448044 75.803825 72.499268 75.815147 71.502785 C 75.826469 70.506302 75.430977 69.548294 74.720001 68.849998 L 64.389999 58.720001 C 63.759827 58.103516 63.631989 57.134422 64.080002 56.370003 L 64.099998 56.349998 C 64.287186 56.038422 64.606514 55.829483 64.966972 55.782715 C 65.327438 55.735954 65.689507 55.856499 65.949997 56.110001 Z M 32.368599 59.880302 C 31.037704 58.5951 28.307365 59.263359 26.270199 61.372902 C 25.291916 62.385956 24.60759 63.602692 24.367767 64.75544 C 24.127945 65.908188 24.352272 66.902519 24.991402 67.519699 C 26.322296 68.804901 29.052635 68.136642 31.089802 66.0271 C 32.068085 65.014046 32.752411 63.79731 32.992233 62.644562 C 33.232056 61.491814 33.007729 60.497475 32.368599 59.880302 Z M 39.6395 65.737701 C 39.020477 65.096664 38.005421 64.888809 36.817638 65.159851 C 35.62986 65.430901 34.366646 66.158646 33.305901 67.182999 C 32.245155 68.207359 31.473774 69.444405 31.161449 70.622009 C 30.849125 71.799606 31.021446 72.821289 31.640499 73.462303 C 32.259525 74.103333 33.274578 74.311195 34.46236 74.040146 C 35.650143 73.769096 36.913353 73.041351 37.974098 72.016998 C 39.034843 70.992638 39.806229 69.755592 40.118553 68.577995 C 40.430874 67.400391 40.258556 66.378708 39.6395 65.737701 Z M 46.156998 72.1567 C 44.829155 70.892235 41.999012 71.708778 39.835701 73.980499 C 37.672401 76.252228 36.995144 79.118851 38.323002 80.383301 C 39.650845 81.647766 42.480988 80.831223 44.644299 78.559502 C 46.807594 76.287773 47.484856 73.421143 46.156998 72.1567 Z M 53.300003 77.964699 C 51.702301 76.595428 48.513336 77.694962 46.1772 80.420601 C 43.841026 83.146271 43.242344 86.465942 44.84 87.835297 C 46.437698 89.204575 49.626663 88.105034 51.962799 85.379402 C 54.298973 82.653732 54.897659 79.334061 53.300003 77.964699 Z"/>
    <text id="Respectify" xml:space="preserve" x="117" y="83" font-family="Nunito, sans-serif" font-size="94" font-weight="600" fill="#000000">Respectify</text>
</svg>
