<?xml version="1.0" encoding="UTF-8"?>
<!-- Generated by Pixelmator Pro 3.7.1 -->
<svg width="115" height="115" viewBox="0 0 115 115" xmlns="http://www.w3.org/2000/svg">
    <path id="Path" fill="#c77dff" stroke="none" d="M 40.049999 102.379997 C 34.489998 106.053329 29.086666 109.773331 23.84 113.540001 C 21.913334 114.919998 20.146667 114.739998 18.540001 113 C 16.970001 111.300003 17.299999 109.220001 17.25 106.910004 C 17.196667 103.816666 17.186665 98.346664 17.220001 90.5 C 17.220001 90.078079 17.083153 89.667534 16.830002 89.330002 C 15.636667 87.756668 14.516666 86.240005 13.469999 84.779999 C 9.563334 79.333328 6.846666 72.979996 5.32 65.720001 C 1.43 47.209999 4.76 25.589996 19.259998 12.650002 C 25.313332 7.243332 33.023335 3.566666 42.389999 1.620003 C 58.050003 -1.639999 77.610001 0.339996 91.110001 9.379997 C 102.57 17.050003 108.769997 29.089996 110.010002 43.68 C 110.83667 53.406662 110.099998 62.023331 107.800003 69.529999 C 102.206673 87.789993 89.666672 98.756668 70.18 102.43 C 70.099998 102.443329 66.949997 102.736664 60.730003 103.309998 C 54.330002 103.900002 47.349998 102.919998 41.32 102.089996 C 40.874802 102.03196 40.424259 102.134842 40.049999 102.379997 Z M 93.459999 34.040001 C 93.454536 33.662834 93.147202 33.359955 92.769997 33.360001 L 86.150002 33.360001 C 85.777306 33.359962 85.41423 33.259689 85.099998 33.07 C 80.486664 30.363327 75.949997 27.75666 71.489998 25.25 C 65.07 21.629997 60.739998 23.709999 55.889999 29.169998 C 50.416664 35.356667 46.876667 39.546669 45.27 41.740005 C 43.876667 43.639999 44.066666 45.523331 45.84 47.389999 C 46.075497 47.638458 46.37347 47.815155 46.700001 47.900002 C 49.033333 48.533333 51.083328 48.013329 52.849998 46.339996 C 56.449997 42.933327 59.790001 39.676666 62.870003 36.57 C 63.498116 35.94445 64.511002 35.935562 65.150002 36.550003 C 72.716667 43.863335 79.893333 51.143333 86.68 58.389999 C 87.739998 59.529999 89.260002 60.699997 90.739998 60.510002 C 92.540001 60.270004 93.450005 59.256668 93.470001 57.470001 C 93.57 47.670006 93.566666 39.860001 93.459999 34.040001 Z M 68.949997 56.110001 L 80.300003 67.169998 C 81.663544 68.499901 83.84288 68.486534 85.190002 67.139999 L 85.459999 66.870003 C 86.205925 66.122566 86.621521 65.107582 86.613998 64.051643 C 86.606483 62.995705 86.176483 61.98674 85.419998 61.25 L 63.940002 40.270004 C 63.775352 40.10965 63.551712 40.024857 63.32357 40.03627 C 63.095421 40.047668 62.883705 40.154236 62.739998 40.330002 C 60.606667 42.889999 57.976669 45.543335 54.849998 48.290001 C 49.84333 52.690002 45.586666 52.126663 42.080002 46.599998 C 41.927692 46.348434 41.819489 46.074547 41.759998 45.790001 C 41.32 43.623337 42.053333 41.263336 43.959999 38.709999 C 46.593334 35.183334 49.453331 31.756668 52.540001 28.43 C 53.100815 27.81752 53.105156 26.883636 52.550003 26.279999 C 51.909996 25.566666 51.059998 25.209999 50 25.209999 C 45.450001 25.18 42.299999 28.119995 38.369999 31.309998 C 37.696854 31.85379 36.856792 32.150284 35.990002 32.150002 L 23 32.150002 C 22.663105 32.150002 22.389999 32.427582 22.389999 32.770004 C 22.356667 42.129997 22.363335 50.313332 22.41 57.32 C 22.423332 59.160004 23.323334 60.18 25.110001 60.379997 C 25.481853 60.418098 25.852062 60.27742 26.110001 60 C 28.189999 57.766663 30.739998 56.466667 33.759998 56.099998 C 34.102329 56.06044 34.450737 56.098015 34.779999 56.209999 C 36.493332 56.803329 37.883331 57.929993 38.950001 59.589996 C 39.080608 59.798744 39.149918 60.044792 39.150002 60.300003 L 39.150002 61.199997 C 39.148666 61.600204 39.414619 61.95208 39.799999 62.059998 C 43.18 62.989998 45.470001 63.550003 46.459999 67.440002 C 46.620785 68.080368 47.171886 68.546989 47.830002 68.599998 C 51.036667 68.860001 52.846664 70.323334 53.260002 72.989998 C 53.329559 73.461647 53.738335 73.810814 54.220001 73.809998 L 56 73.809998 C 56.3265 73.80986 56.63681 73.939758 56.860001 74.169998 L 64.099998 81.410004 C 64.745369 82.053818 65.632736 82.394951 66.543182 82.349243 C 67.453629 82.303528 68.302368 81.875229 68.879997 81.169998 L 69.080002 80.93 C 70.380859 79.373642 70.276764 77.079147 68.839996 75.639999 L 59.220001 66.019997 C 58.691101 65.489273 58.691101 64.63073 59.220001 64.099998 L 59.510002 63.809998 C 59.774666 63.543747 60.134583 63.394035 60.510002 63.394035 C 60.885414 63.394035 61.245338 63.543747 61.510002 63.809998 L 72.029999 74.32 C 73.515068 75.810478 75.923019 75.828316 77.43 74.360001 L 77.660004 74.129997 C 78.386658 73.448044 78.803825 72.499268 78.815147 71.502785 C 78.826469 70.506302 78.430977 69.548294 77.720001 68.849998 L 67.389999 58.720001 C 66.759827 58.103516 66.631989 57.134422 67.080002 56.370003 L 67.099998 56.349998 C 67.287186 56.038422 67.606514 55.829483 67.966972 55.782715 C 68.327438 55.735954 68.689507 55.856499 68.949997 56.110001 Z M 35.368599 59.880302 C 34.037704 58.5951 31.307365 59.263359 29.270199 61.372902 C 28.291916 62.385956 27.60759 63.602692 27.367767 64.75544 C 27.127945 65.908188 27.352272 66.902519 27.991402 67.519699 C 29.322296 68.804901 32.052635 68.136642 34.089802 66.0271 C 35.068085 65.014046 35.752411 63.79731 35.992233 62.644562 C 36.232056 61.491814 36.007729 60.497475 35.368599 59.880302 Z M 42.6395 65.737701 C 42.020477 65.096664 41.005421 64.888809 39.817638 65.159851 C 38.62986 65.430901 37.366646 66.158646 36.305901 67.182999 C 35.245155 68.207359 34.473774 69.444405 34.161449 70.622009 C 33.849125 71.799606 34.021446 72.821289 34.640499 73.462303 C 35.259525 74.103333 36.274578 74.311195 37.46236 74.040146 C 38.650143 73.769096 39.913353 73.041351 40.974098 72.016998 C 42.034843 70.992638 42.806229 69.755592 43.118553 68.577995 C 43.430874 67.400391 43.258556 66.378708 42.6395 65.737701 Z M 49.156998 72.1567 C 47.829155 70.892235 44.999012 71.708778 42.835701 73.980499 C 40.672401 76.252228 39.995144 79.118851 41.323002 80.383301 C 42.650845 81.647766 45.480988 80.831223 47.644299 78.559502 C 49.807594 76.287773 50.484856 73.421143 49.156998 72.1567 Z M 56.300003 77.964699 C 54.702301 76.595428 51.513336 77.694962 49.1772 80.420601 C 46.841026 83.146271 46.242344 86.465942 47.84 87.835297 C 49.437698 89.204575 52.626663 88.105034 54.962799 85.379402 C 57.298973 82.653732 57.897659 79.334061 56.300003 77.964699 Z"/>
</svg>
